<svg width="37" height="35" viewBox="0 0 37 35" fill="none" xmlns="http://www.w3.org/2000/svg">
<path d="M18.7851 10.2083C18.7851 8.66124 18.156 7.17751 17.0363 6.08354C15.9165 4.98958 14.3978 4.375 12.8142 4.375H3.85791V26.25H14.3069C15.4946 26.25 16.6337 26.7109 17.4735 27.5314C18.3133 28.3519 18.7851 29.4647 18.7851 30.625M18.7851 10.2083V30.625M18.7851 10.2083C18.7851 8.66124 19.4142 7.17751 20.5339 6.08354C21.6537 4.98958 23.1724 4.375 24.756 4.375H33.7123V26.25H23.2633C22.0756 26.25 20.9365 26.7109 20.0967 27.5314C19.2569 28.3519 18.7851 29.4647 18.7851 30.625" stroke="#2BB364" stroke-width="4" stroke-linecap="round" stroke-linejoin="round"/>
</svg>
