<svg width="25" height="25" viewBox="0 0 25 25" fill="none" xmlns="http://www.w3.org/2000/svg">
<path d="M12.4999 7.29167C12.4999 6.1866 12.0609 5.12679 11.2795 4.34539C10.4981 3.56399 9.43832 3.125 8.33325 3.125H2.08325V18.75H9.37492C10.2037 18.75 10.9986 19.0792 11.5846 19.6653C12.1707 20.2513 12.4999 21.0462 12.4999 21.875M12.4999 7.29167V21.875M12.4999 7.29167C12.4999 6.1866 12.9389 5.12679 13.7203 4.34539C14.5017 3.56399 15.5615 3.125 16.6666 3.125H22.9166V18.75H15.6249C14.7961 18.75 14.0013 19.0792 13.4152 19.6653C12.8292 20.2513 12.4999 21.0462 12.4999 21.875" stroke="#DA8D2C" stroke-width="2.5" stroke-linecap="round" stroke-linejoin="round"/>
</svg>
