<svg width="35" height="35" viewBox="0 0 35 35" fill="none" xmlns="http://www.w3.org/2000/svg">
<path d="M17.2352 10.2083C17.2352 8.66124 16.636 7.17751 15.5694 6.08354C14.5029 4.98958 13.0563 4.375 11.5479 4.375H3.01709V26.25H12.9698C14.101 26.25 15.1859 26.7109 15.9859 27.5314C16.7858 28.3519 17.2352 29.4647 17.2352 30.625M17.2352 10.2083V30.625M17.2352 10.2083C17.2352 8.66124 17.8344 7.17751 18.9009 6.08354C19.9675 4.98958 21.4141 4.375 22.9224 4.375H31.4533V26.25H21.5006C20.3694 26.25 19.2844 26.7109 18.4845 27.5314C17.6846 28.3519 17.2352 29.4647 17.2352 30.625" stroke="#DA8D2C" stroke-width="4" stroke-linecap="round" stroke-linejoin="round"/>
</svg>
