<svg width="25" height="25" viewBox="0 0 25 25" fill="none" xmlns="http://www.w3.org/2000/svg">
<path d="M14.5833 2.08331H6.24996C5.69743 2.08331 5.16752 2.30281 4.77682 2.69351C4.38612 3.08421 4.16663 3.61411 4.16663 4.16665V20.8333C4.16663 21.3858 4.38612 21.9158 4.77682 22.3065C5.16752 22.6972 5.69743 22.9166 6.24996 22.9166H18.75C19.3025 22.9166 19.8324 22.6972 20.2231 22.3065C20.6138 21.9158 20.8333 21.3858 20.8333 20.8333V8.33331M14.5833 2.08331L20.8333 8.33331M14.5833 2.08331V8.33331H20.8333M16.6666 13.5416H8.33329M16.6666 17.7083H8.33329M10.4166 9.37498H8.33329" stroke="#2365E6" stroke-width="2.5" stroke-linecap="round" stroke-linejoin="round"/>
</svg>
