<svg width="25" height="25" viewBox="0 0 25 25" fill="none" xmlns="http://www.w3.org/2000/svg">
<g clip-path="url(#clip0_180_436)">
<path d="M17.3704 21.0877V19.0877C17.3704 18.0268 16.9489 17.0094 16.1988 16.2593C15.4486 15.5091 14.4312 15.0877 13.3704 15.0877H5.37036C4.3095 15.0877 3.29208 15.5091 2.54193 16.2593C1.79179 17.0094 1.37036 18.0268 1.37036 19.0877V21.0877M23.3704 21.0877V19.0877C23.3697 18.2014 23.0747 17.3405 22.5317 16.64C21.9887 15.9396 21.2285 15.4393 20.3704 15.2177M16.3704 3.21771C17.2308 3.43801 17.9934 3.93841 18.538 4.64002C19.0826 5.34163 19.3782 6.20454 19.3782 7.09271C19.3782 7.98088 19.0826 8.84379 18.538 9.5454C17.9934 10.247 17.2308 10.7474 16.3704 10.9677M13.3704 7.08771C13.3704 9.29685 11.5795 11.0877 9.37036 11.0877C7.16122 11.0877 5.37036 9.29685 5.37036 7.08771C5.37036 4.87857 7.16122 3.08771 9.37036 3.08771C11.5795 3.08771 13.3704 4.87857 13.3704 7.08771Z" stroke="#E62395" stroke-width="2.5" stroke-linecap="round" stroke-linejoin="round"/>
</g>
<defs>
<clipPath id="clip0_180_436">
<rect width="24" height="24" fill="white" transform="translate(0.370361 0.0877075)"/>
</clipPath>
</defs>
</svg>
